<mxfile modified="2022-09-10T07:18:14.818Z" host="app.diagrams.net" agent="5.0 (Windows NT 10.0; Win64; x64) AppleWebKit/537.36 (KHTML, like Gecko) Chrome/105.0.0.0 Safari/537.36" etag="A4YgRj20bxbJ155P-5lA" version="20.2.8" type="github">
  <diagram id="Ht1M8jgEwFfnCIfOTk4-" name="Page-1">
    <mxGraphModel dx="2028" dy="1125" grid="1" gridSize="10" guides="1" tooltips="1" connect="1" arrows="1" fold="1" page="1" pageScale="1" pageWidth="1654" pageHeight="1169" math="0" shadow="0">
      <root>
        <mxCell id="0" />
        <mxCell id="1" parent="0" />
        <mxCell id="upP_JpkpyjL7S7ulsonY-70" value="" style="edgeStyle=orthogonalEdgeStyle;rounded=0;orthogonalLoop=1;jettySize=auto;html=1;" parent="1" source="UEzPUAAOIrF-is8g5C7q-110" target="UEzPUAAOIrF-is8g5C7q-114" edge="1">
          <mxGeometry relative="1" as="geometry">
            <mxPoint x="316" y="745.5" as="targetPoint" />
          </mxGeometry>
        </mxCell>
        <mxCell id="UEzPUAAOIrF-is8g5C7q-110" value="Manager" style="outlineConnect=0;gradientColor=none;fontColor=#545B64;strokeColor=none;fillColor=#879196;dashed=0;verticalLabelPosition=bottom;verticalAlign=top;align=center;html=1;fontSize=12;fontStyle=0;aspect=fixed;shape=mxgraph.aws4.illustration_notification;pointerEvents=1;labelBackgroundColor=#ffffff;" parent="1" vertex="1">
          <mxGeometry x="266" y="836" width="100" height="81" as="geometry" />
        </mxCell>
        <mxCell id="WSCBGSfqBAQD8hPbPQq9-2" style="edgeStyle=orthogonalEdgeStyle;rounded=0;orthogonalLoop=1;jettySize=auto;html=1;" edge="1" parent="1" source="UEzPUAAOIrF-is8g5C7q-114" target="P4BvlFCygqtTmpREC3zi-1">
          <mxGeometry relative="1" as="geometry" />
        </mxCell>
        <mxCell id="UEzPUAAOIrF-is8g5C7q-114" value="Amazon API&lt;br&gt;Gateway&lt;br&gt;" style="outlineConnect=0;fontColor=#232F3E;gradientColor=#945DF2;gradientDirection=north;fillColor=#5A30B5;strokeColor=#ffffff;dashed=0;verticalLabelPosition=bottom;verticalAlign=top;align=center;html=1;fontSize=12;fontStyle=0;aspect=fixed;shape=mxgraph.aws4.resourceIcon;resIcon=mxgraph.aws4.api_gateway;labelBackgroundColor=#ffffff;" parent="1" vertex="1">
          <mxGeometry x="250" y="620" width="78" height="78" as="geometry" />
        </mxCell>
        <mxCell id="upP_JpkpyjL7S7ulsonY-38" value="" style="edgeStyle=orthogonalEdgeStyle;rounded=0;orthogonalLoop=1;jettySize=auto;html=1;" parent="1" source="upP_JpkpyjL7S7ulsonY-2" target="upP_JpkpyjL7S7ulsonY-6" edge="1">
          <mxGeometry relative="1" as="geometry" />
        </mxCell>
        <mxCell id="upP_JpkpyjL7S7ulsonY-2" value="SageMaker" style="sketch=0;points=[[0,0,0],[0.25,0,0],[0.5,0,0],[0.75,0,0],[1,0,0],[0,1,0],[0.25,1,0],[0.5,1,0],[0.75,1,0],[1,1,0],[0,0.25,0],[0,0.5,0],[0,0.75,0],[1,0.25,0],[1,0.5,0],[1,0.75,0]];outlineConnect=0;fontColor=#232F3E;gradientColor=#4AB29A;gradientDirection=north;fillColor=#116D5B;strokeColor=#ffffff;dashed=0;verticalLabelPosition=bottom;verticalAlign=top;align=center;html=1;fontSize=12;fontStyle=0;aspect=fixed;shape=mxgraph.aws4.resourceIcon;resIcon=mxgraph.aws4.sagemaker;" parent="1" vertex="1">
          <mxGeometry x="550" y="891" width="78" height="78" as="geometry" />
        </mxCell>
        <mxCell id="upP_JpkpyjL7S7ulsonY-6" value="SageMaker Endpoint" style="sketch=0;outlineConnect=0;fontColor=#232F3E;gradientColor=none;fillColor=#4D27AA;strokeColor=none;dashed=0;verticalLabelPosition=bottom;verticalAlign=top;align=center;html=1;fontSize=12;fontStyle=0;aspect=fixed;pointerEvents=1;shape=mxgraph.aws4.endpoint;" parent="1" vertex="1">
          <mxGeometry x="404" y="970" width="78" height="78" as="geometry" />
        </mxCell>
        <mxCell id="P4BvlFCygqtTmpREC3zi-9" style="edgeStyle=orthogonalEdgeStyle;rounded=0;orthogonalLoop=1;jettySize=auto;html=1;" parent="1" source="upP_JpkpyjL7S7ulsonY-12" target="P4BvlFCygqtTmpREC3zi-8" edge="1">
          <mxGeometry relative="1" as="geometry" />
        </mxCell>
        <mxCell id="WSCBGSfqBAQD8hPbPQq9-13" style="edgeStyle=orthogonalEdgeStyle;rounded=0;orthogonalLoop=1;jettySize=auto;html=1;" edge="1" parent="1" source="upP_JpkpyjL7S7ulsonY-12" target="WSCBGSfqBAQD8hPbPQq9-12">
          <mxGeometry relative="1" as="geometry" />
        </mxCell>
        <mxCell id="upP_JpkpyjL7S7ulsonY-12" value="Customer Data" style="sketch=0;outlineConnect=0;fontColor=#232F3E;gradientColor=none;fillColor=#3F8624;strokeColor=none;dashed=0;verticalLabelPosition=bottom;verticalAlign=top;align=center;html=1;fontSize=12;fontStyle=0;aspect=fixed;pointerEvents=1;shape=mxgraph.aws4.bucket;" parent="1" vertex="1">
          <mxGeometry x="917" y="648" width="75" height="78" as="geometry" />
        </mxCell>
        <mxCell id="upP_JpkpyjL7S7ulsonY-32" value="" style="edgeStyle=orthogonalEdgeStyle;rounded=0;orthogonalLoop=1;jettySize=auto;html=1;" parent="1" source="upP_JpkpyjL7S7ulsonY-14" target="upP_JpkpyjL7S7ulsonY-26" edge="1">
          <mxGeometry relative="1" as="geometry" />
        </mxCell>
        <mxCell id="upP_JpkpyjL7S7ulsonY-14" value="AWS Glue" style="outlineConnect=0;fontColor=#232F3E;gradientColor=#945DF2;gradientDirection=north;fillColor=#5A30B5;strokeColor=#ffffff;dashed=0;verticalLabelPosition=bottom;verticalAlign=top;align=center;html=1;fontSize=12;fontStyle=0;aspect=fixed;shape=mxgraph.aws4.resourceIcon;resIcon=mxgraph.aws4.glue;labelBackgroundColor=#ffffff;" parent="1" vertex="1">
          <mxGeometry x="917.0000000000002" y="803" width="78" height="78" as="geometry" />
        </mxCell>
        <mxCell id="upP_JpkpyjL7S7ulsonY-37" value="" style="edgeStyle=orthogonalEdgeStyle;rounded=0;orthogonalLoop=1;jettySize=auto;html=1;" parent="1" source="upP_JpkpyjL7S7ulsonY-18" target="upP_JpkpyjL7S7ulsonY-2" edge="1">
          <mxGeometry relative="1" as="geometry" />
        </mxCell>
        <mxCell id="WSCBGSfqBAQD8hPbPQq9-53" style="edgeStyle=orthogonalEdgeStyle;rounded=0;orthogonalLoop=1;jettySize=auto;html=1;entryX=0;entryY=0.5;entryDx=0;entryDy=0;entryPerimeter=0;" edge="1" parent="1" source="upP_JpkpyjL7S7ulsonY-18" target="WSCBGSfqBAQD8hPbPQq9-52">
          <mxGeometry relative="1" as="geometry">
            <Array as="points">
              <mxPoint x="780" y="1108" />
            </Array>
          </mxGeometry>
        </mxCell>
        <mxCell id="upP_JpkpyjL7S7ulsonY-18" value="Traoning Dataset" style="sketch=0;outlineConnect=0;fontColor=#232F3E;gradientColor=none;fillColor=#3F8624;strokeColor=none;dashed=0;verticalLabelPosition=bottom;verticalAlign=top;align=center;html=1;fontSize=12;fontStyle=0;aspect=fixed;pointerEvents=1;shape=mxgraph.aws4.bucket;" parent="1" vertex="1">
          <mxGeometry x="730" y="970" width="75" height="78" as="geometry" />
        </mxCell>
        <mxCell id="upP_JpkpyjL7S7ulsonY-33" value="" style="edgeStyle=none;rounded=0;orthogonalLoop=1;jettySize=auto;html=1;" parent="1" source="upP_JpkpyjL7S7ulsonY-26" target="upP_JpkpyjL7S7ulsonY-18" edge="1">
          <mxGeometry relative="1" as="geometry" />
        </mxCell>
        <mxCell id="upP_JpkpyjL7S7ulsonY-26" value="Databricks" style="sketch=0;aspect=fixed;html=1;points=[];align=center;image;fontSize=12;image=img/lib/mscae/Databricks.svg;" parent="1" vertex="1">
          <mxGeometry x="945" y="985" width="50" height="48" as="geometry" />
        </mxCell>
        <mxCell id="upP_JpkpyjL7S7ulsonY-28" value="" style="endArrow=classic;html=1;rounded=0;" parent="1" target="upP_JpkpyjL7S7ulsonY-14" edge="1">
          <mxGeometry width="50" height="50" relative="1" as="geometry">
            <mxPoint x="956" y="740" as="sourcePoint" />
            <mxPoint x="796" y="880" as="targetPoint" />
          </mxGeometry>
        </mxCell>
        <mxCell id="upP_JpkpyjL7S7ulsonY-39" value="" style="endArrow=classic;html=1;rounded=0;" parent="1" source="upP_JpkpyjL7S7ulsonY-6" target="UEzPUAAOIrF-is8g5C7q-110" edge="1">
          <mxGeometry width="50" height="50" relative="1" as="geometry">
            <mxPoint x="536" y="1010" as="sourcePoint" />
            <mxPoint x="586" y="960" as="targetPoint" />
            <Array as="points">
              <mxPoint x="316" y="1009" />
            </Array>
          </mxGeometry>
        </mxCell>
        <mxCell id="tdodf0jkLIOupHckZh31-3" style="edgeStyle=orthogonalEdgeStyle;rounded=0;orthogonalLoop=1;jettySize=auto;html=1;exitX=1;exitY=0.53;exitDx=0;exitDy=0;exitPerimeter=0;" parent="1" source="WSCBGSfqBAQD8hPbPQq9-43" target="tdodf0jkLIOupHckZh31-2" edge="1">
          <mxGeometry relative="1" as="geometry">
            <mxPoint x="1318" y="1054" as="sourcePoint" />
          </mxGeometry>
        </mxCell>
        <mxCell id="upP_JpkpyjL7S7ulsonY-82" value="" style="edgeStyle=orthogonalEdgeStyle;rounded=0;orthogonalLoop=1;jettySize=auto;html=1;" parent="1" source="upP_JpkpyjL7S7ulsonY-77" target="upP_JpkpyjL7S7ulsonY-80" edge="1">
          <mxGeometry relative="1" as="geometry" />
        </mxCell>
        <mxCell id="WSCBGSfqBAQD8hPbPQq9-19" style="edgeStyle=orthogonalEdgeStyle;rounded=0;orthogonalLoop=1;jettySize=auto;html=1;" edge="1" parent="1" source="upP_JpkpyjL7S7ulsonY-77" target="upP_JpkpyjL7S7ulsonY-12">
          <mxGeometry relative="1" as="geometry">
            <Array as="points">
              <mxPoint x="449" y="180" />
              <mxPoint x="955" y="180" />
            </Array>
          </mxGeometry>
        </mxCell>
        <mxCell id="upP_JpkpyjL7S7ulsonY-77" value="Lambda" style="outlineConnect=0;fontColor=#232F3E;gradientColor=#F78E04;gradientDirection=north;fillColor=#D05C17;strokeColor=#ffffff;dashed=0;verticalLabelPosition=bottom;verticalAlign=top;align=center;html=1;fontSize=12;fontStyle=0;aspect=fixed;shape=mxgraph.aws4.resourceIcon;resIcon=mxgraph.aws4.lambda;labelBackgroundColor=#ffffff;spacingTop=3;" parent="1" vertex="1">
          <mxGeometry x="410" y="256" width="78" height="78" as="geometry" />
        </mxCell>
        <mxCell id="upP_JpkpyjL7S7ulsonY-80" value="DynamoDB" style="outlineConnect=0;fontColor=#232F3E;gradientColor=#4D72F3;gradientDirection=north;fillColor=#3334B9;strokeColor=#ffffff;dashed=0;verticalLabelPosition=bottom;verticalAlign=top;align=center;html=1;fontSize=12;fontStyle=0;aspect=fixed;shape=mxgraph.aws4.resourceIcon;resIcon=mxgraph.aws4.dynamodb;labelBackgroundColor=#ffffff;spacingTop=5;" parent="1" vertex="1">
          <mxGeometry x="600.0000000000002" y="256" width="78" height="78" as="geometry" />
        </mxCell>
        <mxCell id="upP_JpkpyjL7S7ulsonY-93" value="" style="swimlane;startSize=0;" parent="1" vertex="1">
          <mxGeometry x="340" y="228" width="390" height="130" as="geometry" />
        </mxCell>
        <mxCell id="upP_JpkpyjL7S7ulsonY-88" value="Order/Shipping Microservice" style="text;html=1;align=center;verticalAlign=middle;resizable=0;points=[];autosize=1;strokeColor=none;fillColor=none;" parent="upP_JpkpyjL7S7ulsonY-93" vertex="1">
          <mxGeometry x="55" width="170" height="30" as="geometry" />
        </mxCell>
        <mxCell id="upP_JpkpyjL7S7ulsonY-122" value="" style="swimlane;startSize=0;" parent="1" vertex="1">
          <mxGeometry x="380" y="527" width="310" height="264" as="geometry" />
        </mxCell>
        <mxCell id="upP_JpkpyjL7S7ulsonY-123" value="adding new data on accounts" style="text;html=1;align=center;verticalAlign=middle;resizable=0;points=[];autosize=1;strokeColor=none;fillColor=none;" parent="upP_JpkpyjL7S7ulsonY-122" vertex="1">
          <mxGeometry x="65" y="53" width="180" height="30" as="geometry" />
        </mxCell>
        <mxCell id="upP_JpkpyjL7S7ulsonY-120" value="&#xa;&lt;span style=&quot;color: rgb(35, 47, 62); font-family: Helvetica; font-size: 12px; font-style: normal; font-variant-ligatures: normal; font-variant-caps: normal; font-weight: 400; letter-spacing: normal; orphans: 2; text-align: center; text-indent: 0px; text-transform: none; widows: 2; word-spacing: 0px; -webkit-text-stroke-width: 0px; background-color: rgb(255, 255, 255); text-decoration-thickness: initial; text-decoration-style: initial; text-decoration-color: initial; float: none; display: inline !important;&quot;&gt;DynamoDB&lt;/span&gt;&#xa;&#xa;" style="outlineConnect=0;fontColor=#232F3E;gradientColor=#4D72F3;gradientDirection=north;fillColor=#3334B9;strokeColor=#ffffff;dashed=0;verticalLabelPosition=bottom;verticalAlign=top;align=center;html=1;fontSize=12;fontStyle=0;aspect=fixed;shape=mxgraph.aws4.resourceIcon;resIcon=mxgraph.aws4.dynamodb;labelBackgroundColor=#ffffff;spacingTop=5;" parent="upP_JpkpyjL7S7ulsonY-122" vertex="1">
          <mxGeometry x="180.00000000000023" y="113" width="78" height="78" as="geometry" />
        </mxCell>
        <mxCell id="P4BvlFCygqtTmpREC3zi-5" value="" style="edgeStyle=orthogonalEdgeStyle;rounded=0;orthogonalLoop=1;jettySize=auto;html=1;" parent="upP_JpkpyjL7S7ulsonY-122" source="P4BvlFCygqtTmpREC3zi-1" target="upP_JpkpyjL7S7ulsonY-120" edge="1">
          <mxGeometry relative="1" as="geometry" />
        </mxCell>
        <mxCell id="P4BvlFCygqtTmpREC3zi-1" value="Lambda" style="outlineConnect=0;fontColor=#232F3E;gradientColor=#F78E04;gradientDirection=north;fillColor=#D05C17;strokeColor=#ffffff;dashed=0;verticalLabelPosition=bottom;verticalAlign=top;align=center;html=1;fontSize=12;fontStyle=0;aspect=fixed;shape=mxgraph.aws4.resourceIcon;resIcon=mxgraph.aws4.lambda;labelBackgroundColor=#ffffff;spacingTop=3;" parent="upP_JpkpyjL7S7ulsonY-122" vertex="1">
          <mxGeometry x="50" y="113" width="78" height="78" as="geometry" />
        </mxCell>
        <mxCell id="P4BvlFCygqtTmpREC3zi-6" style="edgeStyle=orthogonalEdgeStyle;rounded=0;orthogonalLoop=1;jettySize=auto;html=1;entryX=0;entryY=0.5;entryDx=0;entryDy=0;entryPerimeter=0;" parent="1" source="upP_JpkpyjL7S7ulsonY-120" target="tdodf0jkLIOupHckZh31-1" edge="1">
          <mxGeometry relative="1" as="geometry">
            <mxPoint x="716" y="739" as="targetPoint" />
          </mxGeometry>
        </mxCell>
        <mxCell id="P4BvlFCygqtTmpREC3zi-11" style="edgeStyle=orthogonalEdgeStyle;rounded=0;orthogonalLoop=1;jettySize=auto;html=1;entryX=0.5;entryY=0;entryDx=0;entryDy=0;entryPerimeter=0;" parent="1" source="P4BvlFCygqtTmpREC3zi-7" target="WSCBGSfqBAQD8hPbPQq9-43" edge="1">
          <mxGeometry relative="1" as="geometry">
            <mxPoint x="1254" y="990" as="targetPoint" />
          </mxGeometry>
        </mxCell>
        <mxCell id="P4BvlFCygqtTmpREC3zi-7" value="Databricks" style="sketch=0;aspect=fixed;html=1;points=[];align=center;image;fontSize=12;image=img/lib/mscae/Databricks.svg;" parent="1" vertex="1">
          <mxGeometry x="1148" y="868" width="50" height="48" as="geometry" />
        </mxCell>
        <mxCell id="P4BvlFCygqtTmpREC3zi-10" style="edgeStyle=orthogonalEdgeStyle;rounded=0;orthogonalLoop=1;jettySize=auto;html=1;" parent="1" source="P4BvlFCygqtTmpREC3zi-8" target="P4BvlFCygqtTmpREC3zi-7" edge="1">
          <mxGeometry relative="1" as="geometry" />
        </mxCell>
        <mxCell id="P4BvlFCygqtTmpREC3zi-8" value="AWS Glue" style="outlineConnect=0;fontColor=#232F3E;gradientColor=#945DF2;gradientDirection=north;fillColor=#5A30B5;strokeColor=#ffffff;dashed=0;verticalLabelPosition=bottom;verticalAlign=top;align=center;html=1;fontSize=12;fontStyle=0;aspect=fixed;shape=mxgraph.aws4.resourceIcon;resIcon=mxgraph.aws4.glue;labelBackgroundColor=#ffffff;" parent="1" vertex="1">
          <mxGeometry x="1112.0000000000002" y="713" width="78" height="78" as="geometry" />
        </mxCell>
        <mxCell id="tdodf0jkLIOupHckZh31-6" style="edgeStyle=orthogonalEdgeStyle;rounded=0;orthogonalLoop=1;jettySize=auto;html=1;" parent="1" source="tdodf0jkLIOupHckZh31-1" target="upP_JpkpyjL7S7ulsonY-12" edge="1">
          <mxGeometry relative="1" as="geometry">
            <mxPoint x="856.0066391265859" y="739" as="targetPoint" />
          </mxGeometry>
        </mxCell>
        <mxCell id="tdodf0jkLIOupHckZh31-1" value="AWS KInesis" style="sketch=0;points=[[0,0,0],[0.25,0,0],[0.5,0,0],[0.75,0,0],[1,0,0],[0,1,0],[0.25,1,0],[0.5,1,0],[0.75,1,0],[1,1,0],[0,0.25,0],[0,0.5,0],[0,0.75,0],[1,0.25,0],[1,0.5,0],[1,0.75,0]];outlineConnect=0;fontColor=#232F3E;gradientColor=#945DF2;gradientDirection=north;fillColor=#5A30B5;strokeColor=#ffffff;dashed=0;verticalLabelPosition=bottom;verticalAlign=top;align=center;html=1;fontSize=12;fontStyle=0;aspect=fixed;shape=mxgraph.aws4.resourceIcon;resIcon=mxgraph.aws4.kinesis;" parent="1" vertex="1">
          <mxGeometry x="740" y="700" width="78" height="78" as="geometry" />
        </mxCell>
        <mxCell id="tdodf0jkLIOupHckZh31-4" style="edgeStyle=orthogonalEdgeStyle;rounded=0;orthogonalLoop=1;jettySize=auto;html=1;" parent="1" source="tdodf0jkLIOupHckZh31-2" edge="1">
          <mxGeometry relative="1" as="geometry">
            <mxPoint x="1550" y="895" as="targetPoint" />
          </mxGeometry>
        </mxCell>
        <mxCell id="WSCBGSfqBAQD8hPbPQq9-36" style="edgeStyle=orthogonalEdgeStyle;rounded=0;orthogonalLoop=1;jettySize=auto;html=1;entryX=0.5;entryY=1;entryDx=0;entryDy=0;entryPerimeter=0;" edge="1" parent="1" target="WSCBGSfqBAQD8hPbPQq9-33">
          <mxGeometry relative="1" as="geometry">
            <mxPoint x="1506" y="827.0000000000002" as="sourcePoint" />
          </mxGeometry>
        </mxCell>
        <mxCell id="tdodf0jkLIOupHckZh31-2" value="Databricks" style="sketch=0;aspect=fixed;html=1;points=[];align=center;image;fontSize=12;image=img/lib/mscae/Databricks.svg;" parent="1" vertex="1">
          <mxGeometry x="1480" y="1010" width="50" height="48" as="geometry" />
        </mxCell>
        <mxCell id="WSCBGSfqBAQD8hPbPQq9-7" style="edgeStyle=orthogonalEdgeStyle;rounded=0;orthogonalLoop=1;jettySize=auto;html=1;" edge="1" parent="1" source="WSCBGSfqBAQD8hPbPQq9-3" target="WSCBGSfqBAQD8hPbPQq9-6">
          <mxGeometry relative="1" as="geometry" />
        </mxCell>
        <mxCell id="WSCBGSfqBAQD8hPbPQq9-3" value="Payment from clients" style="rounded=1;whiteSpace=wrap;html=1;fontColor=#000000;labelBackgroundColor=none;labelBorderColor=none;" vertex="1" parent="1">
          <mxGeometry x="10" y="390" width="120" height="60" as="geometry" />
        </mxCell>
        <mxCell id="WSCBGSfqBAQD8hPbPQq9-8" style="edgeStyle=orthogonalEdgeStyle;rounded=0;orthogonalLoop=1;jettySize=auto;html=1;" edge="1" parent="1" source="WSCBGSfqBAQD8hPbPQq9-6" target="upP_JpkpyjL7S7ulsonY-77">
          <mxGeometry relative="1" as="geometry">
            <mxPoint x="599" y="530" as="targetPoint" />
          </mxGeometry>
        </mxCell>
        <mxCell id="WSCBGSfqBAQD8hPbPQq9-6" value="Amazon API&lt;br&gt;Gateway&lt;br&gt;" style="outlineConnect=0;fontColor=#232F3E;gradientColor=#945DF2;gradientDirection=north;fillColor=#5A30B5;strokeColor=#ffffff;dashed=0;verticalLabelPosition=bottom;verticalAlign=top;align=center;html=1;fontSize=12;fontStyle=0;aspect=fixed;shape=mxgraph.aws4.resourceIcon;resIcon=mxgraph.aws4.api_gateway;labelBackgroundColor=#ffffff;" vertex="1" parent="1">
          <mxGeometry x="210" y="422" width="78" height="78" as="geometry" />
        </mxCell>
        <mxCell id="WSCBGSfqBAQD8hPbPQq9-11" value="Emailing System" style="outlineConnect=0;dashed=0;verticalLabelPosition=bottom;verticalAlign=top;align=center;html=1;shape=mxgraph.aws3.ses;fillColor=#D9A741;gradientColor=none;labelBackgroundColor=none;labelBorderColor=none;fontColor=#000000;" vertex="1" parent="1">
          <mxGeometry x="1190" y="334" width="79.5" height="93" as="geometry" />
        </mxCell>
        <mxCell id="WSCBGSfqBAQD8hPbPQq9-14" style="edgeStyle=orthogonalEdgeStyle;rounded=0;orthogonalLoop=1;jettySize=auto;html=1;entryX=0.5;entryY=1;entryDx=0;entryDy=0;entryPerimeter=0;" edge="1" parent="1" source="WSCBGSfqBAQD8hPbPQq9-12" target="WSCBGSfqBAQD8hPbPQq9-11">
          <mxGeometry relative="1" as="geometry" />
        </mxCell>
        <mxCell id="WSCBGSfqBAQD8hPbPQq9-12" value="AWS Glue" style="outlineConnect=0;fontColor=#232F3E;gradientColor=#945DF2;gradientDirection=north;fillColor=#5A30B5;strokeColor=#ffffff;dashed=0;verticalLabelPosition=bottom;verticalAlign=top;align=center;html=1;fontSize=12;fontStyle=0;aspect=fixed;shape=mxgraph.aws4.resourceIcon;resIcon=mxgraph.aws4.glue;labelBackgroundColor=#ffffff;" vertex="1" parent="1">
          <mxGeometry x="1070.0000000000002" y="470" width="78" height="78" as="geometry" />
        </mxCell>
        <mxCell id="WSCBGSfqBAQD8hPbPQq9-20" value="JSON file(small)" style="text;html=1;align=center;verticalAlign=middle;resizable=0;points=[];autosize=1;strokeColor=none;fillColor=none;" vertex="1" parent="1">
          <mxGeometry x="765" y="135" width="110" height="30" as="geometry" />
        </mxCell>
        <mxCell id="WSCBGSfqBAQD8hPbPQq9-25" style="edgeStyle=orthogonalEdgeStyle;rounded=0;orthogonalLoop=1;jettySize=auto;html=1;entryX=0.5;entryY=1;entryDx=0;entryDy=0;" edge="1" parent="1" target="WSCBGSfqBAQD8hPbPQq9-37">
          <mxGeometry relative="1" as="geometry">
            <mxPoint x="1570" y="763" as="sourcePoint" />
            <mxPoint x="1543.9999999999995" y="698.0000000000002" as="targetPoint" />
          </mxGeometry>
        </mxCell>
        <mxCell id="WSCBGSfqBAQD8hPbPQq9-30" style="edgeStyle=orthogonalEdgeStyle;rounded=0;orthogonalLoop=1;jettySize=auto;html=1;entryX=0.44;entryY=0.01;entryDx=0;entryDy=0;entryPerimeter=0;" edge="1" parent="1" source="WSCBGSfqBAQD8hPbPQq9-28" target="WSCBGSfqBAQD8hPbPQq9-29">
          <mxGeometry relative="1" as="geometry" />
        </mxCell>
        <mxCell id="WSCBGSfqBAQD8hPbPQq9-28" value="PostgreSQL" style="sketch=0;aspect=fixed;html=1;points=[];align=center;image;fontSize=12;image=img/lib/mscae/Azure_Database_for_PostgreSQL_servers.svg;" vertex="1" parent="1">
          <mxGeometry x="1310" y="461.5" width="72.2" height="95" as="geometry" />
        </mxCell>
        <mxCell id="WSCBGSfqBAQD8hPbPQq9-32" style="edgeStyle=orthogonalEdgeStyle;rounded=0;orthogonalLoop=1;jettySize=auto;html=1;entryX=0.5;entryY=0;entryDx=0;entryDy=0;entryPerimeter=0;" edge="1" parent="1" source="WSCBGSfqBAQD8hPbPQq9-29" target="WSCBGSfqBAQD8hPbPQq9-43">
          <mxGeometry relative="1" as="geometry">
            <mxPoint x="1280" y="900" as="targetPoint" />
          </mxGeometry>
        </mxCell>
        <mxCell id="WSCBGSfqBAQD8hPbPQq9-29" value="Airflow" style="rounded=0;whiteSpace=wrap;html=1;fillColor=#ffe6cc;strokeColor=#d79b00;" vertex="1" parent="1">
          <mxGeometry x="1240" y="666" width="120" height="60" as="geometry" />
        </mxCell>
        <mxCell id="WSCBGSfqBAQD8hPbPQq9-33" value="Athena" style="sketch=0;points=[[0,0,0],[0.25,0,0],[0.5,0,0],[0.75,0,0],[1,0,0],[0,1,0],[0.25,1,0],[0.5,1,0],[0.75,1,0],[1,1,0],[0,0.25,0],[0,0.5,0],[0,0.75,0],[1,0.25,0],[1,0.5,0],[1,0.75,0]];outlineConnect=0;fontColor=#232F3E;gradientColor=#945DF2;gradientDirection=north;fillColor=#5A30B5;strokeColor=#ffffff;dashed=0;verticalLabelPosition=bottom;verticalAlign=top;align=center;html=1;fontSize=12;fontStyle=0;aspect=fixed;shape=mxgraph.aws4.resourceIcon;resIcon=mxgraph.aws4.athena;" vertex="1" parent="1">
          <mxGeometry x="1370" y="758" width="78" height="78" as="geometry" />
        </mxCell>
        <mxCell id="WSCBGSfqBAQD8hPbPQq9-37" value="Power BI" style="whiteSpace=wrap;html=1;aspect=fixed;" vertex="1" parent="1">
          <mxGeometry x="1530" y="600" width="80" height="80" as="geometry" />
        </mxCell>
        <mxCell id="WSCBGSfqBAQD8hPbPQq9-40" style="edgeStyle=orthogonalEdgeStyle;rounded=0;orthogonalLoop=1;jettySize=auto;html=1;entryX=1;entryY=0.5;entryDx=0;entryDy=0;" edge="1" parent="1" source="WSCBGSfqBAQD8hPbPQq9-38" target="WSCBGSfqBAQD8hPbPQq9-39">
          <mxGeometry relative="1" as="geometry" />
        </mxCell>
        <mxCell id="WSCBGSfqBAQD8hPbPQq9-38" value="Mongo DB" style="strokeWidth=2;html=1;shape=mxgraph.flowchart.database;whiteSpace=wrap;fillColor=#d5e8d4;strokeColor=#82b366;" vertex="1" parent="1">
          <mxGeometry x="827" y="410" width="60" height="60" as="geometry" />
        </mxCell>
        <mxCell id="WSCBGSfqBAQD8hPbPQq9-41" style="edgeStyle=orthogonalEdgeStyle;rounded=0;orthogonalLoop=1;jettySize=auto;html=1;" edge="1" parent="1" source="WSCBGSfqBAQD8hPbPQq9-39" target="upP_JpkpyjL7S7ulsonY-120">
          <mxGeometry relative="1" as="geometry" />
        </mxCell>
        <mxCell id="WSCBGSfqBAQD8hPbPQq9-39" value="Airflow" style="rounded=0;whiteSpace=wrap;html=1;fillColor=#ffe6cc;strokeColor=#d79b00;" vertex="1" parent="1">
          <mxGeometry x="646" y="401.5" width="120" height="60" as="geometry" />
        </mxCell>
        <mxCell id="WSCBGSfqBAQD8hPbPQq9-43" value="Redshift" style="outlineConnect=0;dashed=0;verticalLabelPosition=bottom;verticalAlign=top;align=center;html=1;shape=mxgraph.aws3.redshift;fillColor=#2E73B8;gradientColor=none;" vertex="1" parent="1">
          <mxGeometry x="1230" y="1020" width="67.5" height="75" as="geometry" />
        </mxCell>
        <mxCell id="WSCBGSfqBAQD8hPbPQq9-46" value="Neo4j&amp;nbsp;" style="strokeWidth=2;html=1;shape=mxgraph.flowchart.database;whiteSpace=wrap;fillColor=#d5e8d4;strokeColor=#82b366;" vertex="1" parent="1">
          <mxGeometry x="1148" y="190" width="60" height="60" as="geometry" />
        </mxCell>
        <mxCell id="WSCBGSfqBAQD8hPbPQq9-48" style="edgeStyle=orthogonalEdgeStyle;rounded=0;orthogonalLoop=1;jettySize=auto;html=1;entryX=1;entryY=0.5;entryDx=0;entryDy=0;entryPerimeter=0;" edge="1" parent="1" source="WSCBGSfqBAQD8hPbPQq9-47" target="WSCBGSfqBAQD8hPbPQq9-46">
          <mxGeometry relative="1" as="geometry" />
        </mxCell>
        <mxCell id="WSCBGSfqBAQD8hPbPQq9-47" value="" style="sketch=0;points=[[0,0,0],[0.25,0,0],[0.5,0,0],[0.75,0,0],[1,0,0],[0,1,0],[0.25,1,0],[0.5,1,0],[0.75,1,0],[1,1,0],[0,0.25,0],[0,0.5,0],[0,0.75,0],[1,0.25,0],[1,0.5,0],[1,0.75,0]];outlineConnect=0;fontColor=#232F3E;gradientColor=#4D72F3;gradientDirection=north;fillColor=#3334B9;strokeColor=#ffffff;dashed=0;verticalLabelPosition=bottom;verticalAlign=top;align=center;html=1;fontSize=12;fontStyle=0;aspect=fixed;shape=mxgraph.aws4.resourceIcon;resIcon=mxgraph.aws4.neptune;" vertex="1" parent="1">
          <mxGeometry x="1442" y="40" width="78" height="78" as="geometry" />
        </mxCell>
        <mxCell id="WSCBGSfqBAQD8hPbPQq9-49" value="??????????????" style="text;html=1;align=center;verticalAlign=middle;resizable=0;points=[];autosize=1;strokeColor=none;fillColor=none;" vertex="1" parent="1">
          <mxGeometry x="1130" y="100" width="120" height="30" as="geometry" />
        </mxCell>
        <mxCell id="WSCBGSfqBAQD8hPbPQq9-50" value="Datamarts(Redshift)" style="outlineConnect=0;dashed=0;verticalLabelPosition=bottom;verticalAlign=top;align=center;html=1;shape=mxgraph.aws3.redshift;fillColor=#2E73B8;gradientColor=none;" vertex="1" parent="1">
          <mxGeometry x="1520" y="791" width="67.5" height="75" as="geometry" />
        </mxCell>
        <mxCell id="WSCBGSfqBAQD8hPbPQq9-54" style="edgeStyle=orthogonalEdgeStyle;rounded=0;orthogonalLoop=1;jettySize=auto;html=1;entryX=0.5;entryY=1;entryDx=0;entryDy=0;entryPerimeter=0;" edge="1" parent="1" source="WSCBGSfqBAQD8hPbPQq9-52" target="WSCBGSfqBAQD8hPbPQq9-43">
          <mxGeometry relative="1" as="geometry" />
        </mxCell>
        <mxCell id="WSCBGSfqBAQD8hPbPQq9-52" value="Redshift Spectrum" style="outlineConnect=0;dashed=0;verticalLabelPosition=bottom;verticalAlign=top;align=center;html=1;shape=mxgraph.aws3.redshift;fillColor=#2E73B8;gradientColor=none;" vertex="1" parent="1">
          <mxGeometry x="874" y="1071" width="67.5" height="75" as="geometry" />
        </mxCell>
      </root>
    </mxGraphModel>
  </diagram>
</mxfile>
